<?xml version="1.0" encoding="utf-8"?>
<svg version="1.1" xmlns:xlink="http://www.w3.org/1999/xlink" width="13px" height="13px" xmlns="http://www.w3.org/2000/svg">
  <g transform="matrix(1 0 0 1 -623 -396 )">
    <path d="M 5.13678124562227 9.48185659215627  C 5.44077746326039 9.95915700716531  5.98637065589846 10.2560203549271  6.5611743110698 10.2560203549271  C 6.62677499727608 10.2560203549271  6.69358254821344 10.252135985989  6.76077672946885 10.2443708614794  C 7.40517384188793 10.1694802283536  7.95237136967751 9.7332999235912  8.15436222396652 9.13218750703564  C 8.16957811433362 9.08718302785099  8.14757631987975 9.03906021341654  8.10317526055159 9.0192734187144  C 8.05916805827639 8.99948662401227  8.00597567592208 9.0165633938739  7.98117713505545 9.05691385706579  C 7.97877424569565 9.06080545273675  7.72277077463928 9.4612712434678  6.72597638747751 9.59166318532706  C 6.57678405848986 9.61106334981862  6.43158450054367 9.62115548232466  6.29397662762747 9.62115548232466  C 5.59558496527832 9.62076885211408  5.28438730629571 9.36582055521877  5.28158333314803 9.36348270712303  C 5.24638552073628 9.33321353633782  5.1927739877568 9.33243666255021  5.15678484787167 9.36193979964717  C 5.12039823756612 9.39142848327831  5.11198270475564 9.44265517949676  5.13678124562227 9.48185659215627  Z M 13 5.31176070174912  C 12.9999710930603 4.7385976747153  12.5167554628557 4.27369472000996  11.920773861011 4.27369472000996  C 11.9119716978824 4.27369472000996  11.9039717023297 4.27524124085228  11.895570622989 4.27524124085228  C 11.3115709476362 1.8265964895311  9.0799696588314 0  6.40439029705216 0  C 3.65519941341149 0  1.37240393445685 1.92749613439277  0.866395182324963 4.47742716078619  C 0.374391842461626 4.56319402693848  0 4.98190009152935  0 5.48832424015768  C 0 5.48832424015768  0 7.51516988520335  0 7.51516988520335  C 0 8.08328865266737  0.470402629197343 8.54390254139181  1.05119724761462 8.54390254139181  C 1.37880320822558 8.54390254139181  1.66799907275432 8.3941248885068  1.86040366317634 8.16399680578406  C 2.32517666587358 9.35452155831709  3.27154289678666 10.3145460513826  4.4690815264643 10.8209918802097  C 4.47195054022623 10.8149431047657  4.49463164776227 10.7722728603103  4.52187282503074 10.7382638552452  C 4.54076351010298 10.7146794123999  4.56184389585497 10.6953117682064  4.57998300049587 10.6953117682064  C 4.59879419148402 10.6953117682064  4.61599382058574 10.7019025486185  4.63079056032767 10.711998294491  C 4.35358384902572 10.5121393825535  3.35239199366716 9.48494240710799  3.13559355953384 8.05146934767339  C 3.04039216710879 7.4204671638103  3.52838466909337 6.80114338032655  4.09678543712852 6.69869360125612  C 5.00919324066806 6.53414811967359  5.91678442538563 6.34672280170429  6.82919945566009 6.18528842863865  C 7.40917745303178 6.08283503620176  7.80559277015203 5.77472689203511  8.04798468599281 5.26171196299468  C 8.10478682243801 5.14179517048558  8.18679219690518 4.89927324082559  8.22439651204419 4.54961860917078  C 8.23439108643397 4.49763310599699  8.27839106197426 4.45765481954987  8.33480656810141 4.45765481954987  C 8.37241449660788 4.45765481954987  8.40440725208408 4.47627811025382  8.42560326559474 4.50304954231155  C 8.42560326559474 4.50304954231155  8.4508065036167 4.48792760370153  8.4508065036167 4.48792760370153  C 8.81040883307132 4.99356403844288  9.52360807526478 6.11311143371988  9.62601090903431 7.29358380077788  C 9.74361156633364 8.64326650551052  9.67800726675991 9.56761623157565  8.61121111182761 10.5133173400175  C 8.61001147383144 10.5144772306492  8.60841797878231 10.5160309782245  8.60681725699826 10.5172089356885  C 8.59200245041904 10.5327211178755  8.58321112739288 10.5529089962541  8.58321112739288 10.5750227989526  C 8.58321112739288 10.604132079106  8.59922557196827 10.628963133378  8.6224197776834 10.6440886853544  C 8.63121471407701 10.6475900374484  8.64001687720554 10.6522295999753  8.64881904033408 10.6557345654357  C 8.6560168683111 10.6572846996445  8.66280638576533 10.6596189343738  8.67002589394711 10.6596189343738  C 8.67723456202651 10.6596189343738  8.68363383579524 10.6572991531103  8.69002949619651 10.6557345654357  C 8.70522731972632 10.647976667659  8.71962297568037 10.6390444257847  8.73442694215721 10.6312865280079  C 9.81322309041868 10.0557892662448  10.640810706241 9.09457236224944  11.0232169977252 7.9385444192528  C 11.177999206171 8.16128678094355  11.420416415584 8.32155042327808  11.7020097549803 8.37743474885574  C 11.2504038633013 10.3666327288171  9.41841933518486 11.6115241930171  7.14880903408573 11.8005032585617  C 7.01280910968849 11.4737609835917  6.67800532110051 11.241706976549  6.28482035448802 11.241706976549  C 5.77122353069361 11.241706976549  5.35481183805888 11.635574760135  5.35481183805888 12.1210413833301  C 5.35481183805888 12.6065007797923  5.77121269059124 13  6.28482035448802 13  C 6.69881109092567 13  7.04562209957774 12.7423272247984  7.16601950328983 12.3884232741936  C 9.79320503469945 12.181583338267  11.8992092840196 10.6693208233028  12.3388151823694 8.31961727222519  C 12.7272052103647 8.16244305820883  13 7.79340271552828  13 7.36265691391266  C 13 7.36265691391266  13 5.31176070174912  13 5.31176070174912  Z M 11.0575692821518 4.69784612784702  C 11.0175693043879 4.74985331121953  10.9807635434571 4.80418388922197  10.9515675343937 4.86277462627368  C 10.2663718900024 3.06528380352959  8.49078118780839 1.78119815340297  6.40198740769236 1.78119815340297  C 4.32198495060249 1.78119815340297  2.55279713554464 3.0544256373353  1.86120221738463 4.84026335326522  C 1.82680657254864 4.79950819303048  1.78639828426195 4.76459223298542  1.74679939028593 4.72927880263042  C 2.13839447521675 2.55303490817741  4.07238436668231 0.898351554428556  6.40439029705216 0.898351554428556  C 8.72519117493368 0.898351554428556  10.6531792630509 2.53673139873693  11.0575692821518 4.69784612784702  Z M 4.46905984625955 10.8209918802097  C 4.46862624216455 10.8219277421213  4.46861901542963 10.8220469832142  4.4691863141206 10.8210280138742  Z " fill-rule="nonzero" fill="#ff6336" stroke="none" transform="matrix(1 0 0 1 623 396 )" />
  </g>
</svg>